<svg width="32" height="32" viewBox="0 0 32 32" fill="none" xmlns="http://www.w3.org/2000/svg">
<g clip-path="url(#clip0_659_151)">
<path d="M21.3295 5.31333H24.2508V0.225333C23.7468 0.156 22.0135 0 19.9948 0C15.7828 0 12.8975 2.64933 12.8975 7.51867V12H8.24951V17.688H12.8975V32H18.5962V17.6893H23.0562L23.7642 12.0013H18.5948V8.08267C18.5962 6.43867 19.0388 5.31333 21.3295 5.31333Z" fill="white"/>
<path fill-rule="evenodd" clip-rule="evenodd" d="M13.8975 13H9.24951V16.688H13.8975V31H17.5962V16.6893H22.1729L22.632 13.0013H17.5948V8.08267C17.5955 7.22182 17.6994 6.22094 18.3288 5.44936C18.997 4.63029 20.0413 4.31333 21.3295 4.31333H23.2508V1.12952C22.4698 1.06635 21.2954 1 19.9948 1C18.1004 1 16.6037 1.59149 15.5803 2.63391C14.5564 3.67682 13.8975 5.28216 13.8975 7.51867V13ZM24.2508 0.225333V5.31333H21.3295C19.0388 5.31333 18.5962 6.43867 18.5948 8.08267V12.0013H23.7642L23.0562 17.6893H18.5962V32H12.8975V17.688H8.24951V12H12.8975V7.51867C12.8975 2.64933 15.7828 0 19.9948 0C22.0135 0 23.7468 0.156 24.2508 0.225333Z" fill="black"/>
</g>
<defs>
<clipPath id="clip0_659_151">
<rect width="32" height="32" fill="white"/>
</clipPath>
</defs>
</svg>
